<svg width="33" height="33" viewBox="0 0 33 33" fill="none" xmlns="http://www.w3.org/2000/svg">
<path d="M16.5 2.57812C13.7465 2.57813 11.0549 3.39463 8.76543 4.92438C6.47599 6.45414 4.69158 8.62844 3.63787 11.1723C2.58416 13.7162 2.30846 16.5154 2.84564 19.216C3.38281 21.9166 4.70875 24.3972 6.65575 26.3443C8.60276 28.2913 11.0834 29.6172 13.784 30.1544C16.4846 30.6915 19.2838 30.4158 21.8277 29.3621C24.3716 28.3084 26.5459 26.524 28.0756 24.2346C29.6054 21.9451 30.4219 19.2535 30.4219 16.5C30.4178 12.8089 28.9497 9.27024 26.3397 6.66027C23.7298 4.0503 20.1911 2.58222 16.5 2.57812ZM10.2571 25.3391C10.9752 24.3572 11.9148 23.5586 12.9995 23.008C14.0842 22.4574 15.2835 22.1705 16.5 22.1705C17.7165 22.1705 18.9158 22.4574 20.0005 23.008C21.0852 23.5586 22.0248 24.3572 22.7429 25.3391C20.9184 26.633 18.7368 27.3281 16.5 27.3281C14.2632 27.3281 12.0816 26.633 10.2571 25.3391ZM12.8906 15.4688C12.8906 14.7549 13.1023 14.057 13.4989 13.4635C13.8955 12.8699 14.4592 12.4073 15.1188 12.1341C15.7783 11.8609 16.504 11.7895 17.2042 11.9287C17.9043 12.068 18.5474 12.4118 19.0522 12.9165C19.557 13.4213 19.9008 14.0644 20.04 14.7646C20.1793 15.4647 20.1078 16.1905 19.8346 16.85C19.5614 17.5095 19.0988 18.0732 18.5053 18.4698C17.9117 18.8664 17.2139 19.0781 16.5 19.0781C15.5427 19.0781 14.6247 18.6979 13.9478 18.021C13.2709 17.3441 12.8906 16.426 12.8906 15.4688ZM25.0078 23.1954C24.0052 21.9202 22.7273 20.8881 21.2695 20.1764C22.1986 19.2356 22.8286 18.0411 23.0804 16.7432C23.3322 15.4452 23.1946 14.1018 22.6848 12.8818C22.175 11.6619 21.3158 10.62 20.2153 9.88718C19.1148 9.15436 17.8222 8.76335 16.5 8.76335C15.1778 8.76335 13.8852 9.15436 12.7847 9.88718C11.6842 10.62 10.825 11.6619 10.3152 12.8818C9.80541 14.1018 9.66776 15.4452 9.91959 16.7432C10.1714 18.0411 10.8015 19.2356 11.7305 20.1764C10.2728 20.8881 8.99481 21.9202 7.99219 23.1954C6.73284 21.599 5.94844 19.6802 5.7288 17.6587C5.50915 15.6372 5.86313 13.5948 6.75022 11.7651C7.63731 9.93545 9.02165 8.39254 10.7448 7.313C12.4679 6.23346 14.4602 5.66092 16.4936 5.66092C18.5269 5.66092 20.5192 6.23346 22.2423 7.313C23.9655 8.39254 25.3498 9.93545 26.2369 11.7651C27.124 13.5948 27.478 15.6372 27.2583 17.6587C27.0387 19.6802 26.2543 21.599 24.9949 23.1954H25.0078Z" fill="white"/>
</svg>
