<svg width="31" height="31" viewBox="0 0 31 31" fill="none" xmlns="http://www.w3.org/2000/svg">
<path d="M28.1531 26.0969L22.4024 20.3438C24.1266 18.0968 24.9316 15.2782 24.6541 12.4595C24.3766 9.64088 23.0373 7.03335 20.9079 5.16586C18.7785 3.29838 16.0185 2.31079 13.1877 2.40344C10.357 2.49608 7.66745 3.66202 5.66474 5.66474C3.66202 7.66745 2.49608 10.357 2.40344 13.1877C2.31079 16.0185 3.29838 18.7785 5.16586 20.9079C7.03335 23.0373 9.64088 24.3766 12.4595 24.6541C15.2782 24.9316 18.0968 24.1266 20.3438 22.4024L26.0994 28.1592C26.2345 28.2943 26.395 28.4015 26.5716 28.4747C26.7482 28.5479 26.9375 28.5855 27.1286 28.5855C27.3198 28.5855 27.5091 28.5479 27.6857 28.4747C27.8623 28.4015 28.0228 28.2943 28.1579 28.1592C28.2931 28.024 28.4003 27.8635 28.4735 27.6869C28.5466 27.5103 28.5843 27.321 28.5843 27.1299C28.5843 26.9387 28.5466 26.7494 28.4735 26.5728C28.4003 26.3962 28.2931 26.2357 28.1579 26.1006L28.1531 26.0969ZM5.32814 13.5625C5.32814 11.9339 5.81108 10.3419 6.71588 8.98774C7.62069 7.63361 8.90672 6.57819 10.4114 5.95495C11.916 5.33171 13.5717 5.16864 15.169 5.48636C16.7663 5.80409 18.2335 6.58834 19.3851 7.73994C20.5367 8.89153 21.3209 10.3588 21.6387 11.9561C21.9564 13.5534 21.7933 15.209 21.1701 16.7137C20.5468 18.2183 19.4914 19.5043 18.1373 20.4091C16.7832 21.314 15.1911 21.7969 13.5625 21.7969C11.3793 21.7946 9.28617 20.9264 7.74241 19.3826C6.19865 17.8389 5.33039 15.7457 5.32814 13.5625Z" fill="white"/>
</svg>
