<svg width="33" height="33" viewBox="0 0 33 33" fill="none" xmlns="http://www.w3.org/2000/svg">
<path d="M12.8906 27.8438C12.8906 28.3537 12.7394 28.8521 12.4561 29.2761C12.1728 29.7 11.7702 30.0305 11.2991 30.2256C10.828 30.4208 10.3096 30.4718 9.80953 30.3723C9.30942 30.2729 8.85005 30.0273 8.48949 29.6668C8.12893 29.3062 7.88339 28.8468 7.78391 28.3467C7.68443 27.8466 7.73549 27.3282 7.93062 26.8571C8.12575 26.3861 8.4562 25.9834 8.88017 25.7001C9.30414 25.4168 9.80259 25.2656 10.3125 25.2656C10.9963 25.2656 11.652 25.5372 12.1355 26.0207C12.619 26.5042 12.8906 27.16 12.8906 27.8438ZM23.7187 25.2656C23.2088 25.2656 22.7104 25.4168 22.2864 25.7001C21.8624 25.9834 21.532 26.3861 21.3369 26.8571C21.1417 27.3282 21.0907 27.8466 21.1902 28.3467C21.2896 28.8468 21.5352 29.3062 21.8957 29.6668C22.2563 30.0273 22.7157 30.2729 23.2158 30.3723C23.7159 30.4718 24.2343 30.4208 24.7054 30.2256C25.1764 30.0305 25.5791 29.7 25.8624 29.2761C26.1457 28.8521 26.2969 28.3537 26.2969 27.8438C26.2969 27.16 26.0252 26.5042 25.5418 26.0207C25.0583 25.5372 24.4025 25.2656 23.7187 25.2656ZM30.3536 9.73629L26.8357 21.1703C26.6111 21.9097 26.1541 22.557 25.5324 23.0161C24.9108 23.4752 24.1577 23.7216 23.3849 23.7188H10.6902C9.90632 23.7162 9.14438 23.4597 8.51854 22.9877C7.8927 22.5157 7.43666 21.8536 7.21875 21.1007L2.81144 5.67188H1.54687C1.13662 5.67188 0.743164 5.5089 0.453069 5.21881C0.162974 4.92871 0 4.53526 0 4.125C0 3.71474 0.162974 3.32129 0.453069 3.03119C0.743164 2.7411 1.13662 2.57813 1.54687 2.57812H3.19945C3.75935 2.57985 4.30359 2.76308 4.75053 3.10032C5.19747 3.43756 5.52301 3.91063 5.67832 4.44855L6.61805 7.73438H28.875C29.1171 7.73436 29.3558 7.79116 29.5719 7.90021C29.7881 8.00926 29.9756 8.16752 30.1194 8.36225C30.2632 8.55699 30.3593 8.78276 30.4 9.0214C30.4407 9.26005 30.4248 9.50491 30.3536 9.73629ZM26.7803 10.8281H7.50105L10.1939 20.2512C10.2247 20.359 10.2899 20.4538 10.3794 20.5212C10.469 20.5887 10.5781 20.6251 10.6902 20.625H23.3849C23.4952 20.6252 23.6028 20.59 23.6916 20.5246C23.7805 20.4592 23.846 20.3669 23.8786 20.2615L26.7803 10.8281Z" fill="white"/>
</svg>
