<svg width="35" height="34" viewBox="0 0 35 34" fill="none" xmlns="http://www.w3.org/2000/svg">
<path d="M33.673 14.4441C34.7437 13.6343 34.1709 11.9276 32.8284 11.9276H23.1476C22.5336 11.9276 21.9913 11.5276 21.81 10.9411L18.8375 1.32637C18.4309 0.0110565 16.5691 0.0110565 16.1625 1.32637L13.19 10.9411C13.0087 11.5276 12.4664 11.9276 11.8524 11.9276H2.12961C0.791416 11.9276 0.215918 13.6251 1.27822 14.439L9.25303 20.5483C9.71718 20.9038 9.91148 21.5104 9.74029 22.0695L6.75463 31.8207C6.35582 33.1232 7.86333 34.1704 8.94468 33.342L16.6486 27.4402C17.151 27.0553 17.849 27.0553 18.3514 27.4402L26.039 33.3295C27.1219 34.159 28.6309 33.1079 28.228 31.8046L25.2 22.0103C25.0259 21.4473 25.223 20.8357 25.6929 20.4802L33.673 14.4441Z" fill="#FFAD33"/>
</svg>
